<?xml version="1.0" encoding="utf-8"?>
<!-- Generator: Adobe Illustrator 19.0.0, SVG Export Plug-In . SVG Version: 6.00 Build 0)  -->
<svg version="1.1" id="Layer_1" xmlns="http://www.w3.org/2000/svg" xmlns:xlink="http://www.w3.org/1999/xlink" x="0px" y="0px"
	 viewBox="0 0 500 500" style="enable-background:new 0 0 500 500;" xml:space="preserve">
<style type="text/css">
	.st0{fill:#040404;}
</style>
<g>
	<path class="st0" d="M131.8,206c2.9-0.8,6.2-0.1,8.6,1.7c2.9,2.1,4.6,5.9,4.1,9.5c-0.5,4.3-3.9,8-8.2,8.8c-5.6,1.3-11.7-3-12.2-8.8
		C123.3,212.3,126.8,207.1,131.8,206z"/>
	<path class="st0" d="M416.8,202.1c6.9-1.4,14.3,3.6,15.6,10.5c0.2,2,0.2,4.1,0,6.1c-0.7,3.6-2.9,6.7-6,8.7c-3,1.9-6.7,2.6-10.2,1.8
		c-4.7-1-8.6-4.8-9.9-9.4c-0.9-2.7-0.8-5.6,0.1-8.3C407.8,206.7,412,203,416.8,202.1z M417.1,206c-1.3,0.3-2.5,0.9-3.5,1.7
		c-3.7,3-4.6,8.6-2.5,12.8c1.3,2.7,4,4.8,7,5c2.6,0.3,5.4-0.5,7.3-2.4c3.9-3.6,4.2-10.3,0.7-14.3C423.9,206.4,420.3,205.2,417.1,206
		z"/>
	<path class="st0" d="M89.3,209.5c7.2-2.9,15.2-3.2,22.7-2.2c0,5.6,0,11.2,0,16.8c-2.1-0.3-4.1-0.4-6.2-0.4
		c-2.4,0.1-5.2,0.4-6.9,2.3c-1.6,1.9-1.1,4.6-1.2,6.9c15.7,0,31.5,0,47.2,0c0,16.1,0,32.1,0,48.2c2.7,0,5.4,0,8,0
		c0,5.1,0,10.3,0,15.4c-12.5,0-25,0-37.5,0c0-5.1,0-10.3,0-15.4c2.7,0,5.4,0,8.1,0c0-10.9,0-21.9,0-32.8c-8.6,0-17.2,0-25.8,0
		c0,10.9,0,21.9,0,32.8c3.1,0,6.3,0,9.4,0c0,5.1,0,10.3,0,15.4c-13,0-25.9,0-38.9,0c0-5.1,0-10.3,0-15.4c2.7,0,5.4,0,8,0
		c0-10.9,0-21.9,0-32.8c-2.9,0-5.9,0-8.8,0v-15.4c2.9,0,5.9,0,8.8,0c0-3.9,0-7.9,1.4-11.6C79.4,216,83.9,211.7,89.3,209.5z"/>
	<path class="st0" d="M414.3,209.1c2.3,0.1,4.7-0.1,7,0.1c2.1,0.2,3.8,2.1,3.6,4.2c0.2,1.5-0.9,2.8-2.1,3.5c1,1.7,1.9,3.5,2.8,5.3
		c-1.5,0-2.9,0-4.4,0c-0.6-1.4-1.2-2.9-1.8-4.4c-0.3,0-0.8-0.1-1.1-0.1c0,1.5,0,3,0,4.5c-1.3,0-2.7,0-4,0
		C414.3,217.7,414.3,213.4,414.3,209.1z M418.3,211.8c0,1,0,2.1,0,3.2c0.6-0.1,1.3,0,1.9-0.2c0.7-0.5,0.8-1.5,0.5-2.3
		C420.2,211.6,419.1,212,418.3,211.8z"/>
	<path class="st0" d="M336.8,232.8c2.6-0.9,5.4-0.9,8.1-0.7c0,7,0,14.1,0,21.1c-4.6-0.8-9.6-0.5-13.7,1.8c-3.8,2-6.3,5.8-7.3,9.9
		c-1.4,5.4-0.7,10.9-0.9,16.4c2.9,0,5.8,0,8.7,0c0,5.1,0,10.3,0,15.4c-12.9,0-25.8,0-38.7,0c0-5.1,0-10.3,0-15.4c2.9,0,5.8,0,8.6,0
		c0-10,0-20,0-30c0-0.8-0.3-1.5-0.6-2.2c-2.5-1.1-5.4-0.4-8-0.6c0-5.1,0-10.3,0-15.4c6.1,0,12.3,0,18.4,0c2.2,0,4.5-0.2,6.6,0.8
		c2,0.8,3.6,2.7,3.9,4.8c0.5,3,0.3,6.2,0.1,9.2c0.5-0.8,0.7-1.7,1.1-2.5C325.6,239.5,330.6,234.7,336.8,232.8z"/>
	<path class="st0" d="M393.8,232.7c2.5-0.9,5.3-0.8,7.9-0.6c0,7,0,14.1,0,21.1c-4.7-0.8-9.7-0.5-13.9,1.8c-3.7,2-6.2,5.8-7.1,9.8
		c-1.4,5.4-0.8,11-0.9,16.4c2.9,0,5.8,0,8.7,0c0,5.1,0,10.3,0,15.4c-12.9,0-25.8,0-38.7,0c0-5.1,0-10.3,0-15.4c2.9,0,5.7,0,8.6,0
		c0-10,0-20,0-30c0-1.2-0.6-2.5-1.9-2.7c-2.2-0.2-4.5,0-6.7-0.1c0-5.1,0-10.3,0-15.4c6.9,0,13.8,0,20.7,0c2.3,0,4.7,0.5,6.4,2.1
		c1.4,1.3,1.8,3.2,2,5c0.1,2.6,0,5.1-0.1,7.7c0.6-1.1,0.9-2.3,1.4-3.4C382.9,239,387.8,234.4,393.8,232.7z"/>
	<path class="st0" d="M150.4,233c11.3,0,22.6,0,33.9,0c0,5.1,0,10.3,0,15.4c-1.9,0-3.8,0-5.8,0c2,5.8,3.7,11.6,5.6,17.4
		c1.1,3.7,2.5,7.2,3.1,11c0.3,1,0.1,2.2,0.7,3.2c0.4-2.1,0.6-4.3,1.1-6.4c2.6-8.4,5.4-16.8,8-25.3c-1.9,0-3.8,0-5.7,0
		c0-5.1,0-10.3,0-15.4c11.3,0,22.6,0,33.9,0c0,5.1,0,10.3,0,15.4c-2.4,0-4.7,0-7.1,0c-6,16-11.8,32.1-17.7,48.2
		c-8.4,0-16.8,0-25.2,0c-5.9-16.1-11.8-32.1-17.7-48.2c-2.4,0-4.8,0-7.2,0C150.4,243.3,150.4,238.2,150.4,233z"/>
	<path class="st0" d="M249.4,232.6c5.2-1.2,10.6-1.3,15.8-0.4c5.2,1,10.3,3.3,14.1,7.1c5.1,4.9,7.9,11.9,8.5,18.8
		c0.5,3.6,0.1,7.2-0.3,10.7c-13.5,0-27,0-40.4,0c0.8,3.9,3,7.6,6.6,9.6c3.7,2.3,8.3,2.4,12.5,1.8c4.9-0.9,9.5-3,13.7-5.7
		c2.5,4.9,5.2,9.8,7.7,14.7c-0.6,0.8-1.6,1.3-2.4,1.9c-7.5,4.8-16.5,7.2-25.5,7c-6.4,0.1-12.9-1.5-18.5-4.7
		c-5.8-3.4-10.5-8.6-13.1-14.8c-2.8-6.4-3.6-13.7-2.3-20.6c1-5.9,3.5-11.5,7.4-15.9C237.5,237.3,243.3,234,249.4,232.6z M251.4,250
		c-2,1.8-3.1,4.4-3.7,7c6.1-0.1,12.2,0,18.3,0c0-3.7-2.1-7.7-5.7-9C257.2,247.1,253.7,247.8,251.4,250z"/>
</g>
</svg>
